<svg xmlns="http://www.w3.org/2000/svg" viewBox="-92 -92 184 184">
  <defs>
    <linearGradient id="topazGrad" x1="0%" y1="0%" x2="100%" y2="100%">
      <stop offset="0%" style="stop-color:#55C3D9;stop-opacity:1" />
      <stop offset="100%" style="stop-color:#007BA7;stop-opacity:1" />
    </linearGradient>
    <linearGradient id="topazLight" x1="0%" y1="0%" x2="100%" y2="100%">
      <stop offset="0%" style="stop-color:#7FDBFF;stop-opacity:1" />
      <stop offset="100%" style="stop-color:#55C3D9;stop-opacity:1" />
    </linearGradient>
    <linearGradient id="topazDark" x1="0%" y1="0%" x2="100%" y2="100%">
      <stop offset="0%" style="stop-color:#007BA7;stop-opacity:1" />
      <stop offset="100%" style="stop-color:#005D7F;stop-opacity:1" />
    </linearGradient>
    <linearGradient id="turquoiseGrad" x1="100%" y1="0%" x2="0%" y2="100%">
      <stop offset="0%" style="stop-color:#40E0D0;stop-opacity:1" />
      <stop offset="100%" style="stop-color:#00CED1;stop-opacity:1" />
    </linearGradient>
    <linearGradient id="pinkGrad" x1="0%" y1="100%" x2="100%" y2="0%">
      <stop offset="0%" style="stop-color:#FF69B4;stop-opacity:0.7" />
      <stop offset="100%" style="stop-color:#FF1493;stop-opacity:0.7" />
    </linearGradient>
    <filter id="shadow" x="-20%" y="-20%" width="140%" height="140%">
      <feGaussianBlur in="SourceAlpha" stdDeviation="2" />
      <feOffset dx="2" dy="2" result="offsetblur" />
      <feComponentTransfer>
        <feFuncA type="linear" slope="0.5" />
      </feComponentTransfer>
      <feMerge>
        <feMergeNode />
        <feMergeNode in="SourceGraphic" />
      </feMerge>
    </filter>
  </defs>
  <g transform="scale(0.85)" filter="url(#shadow)">
    <!-- Diamond outline -->
    <path d="M0,-90 L90,0 L0,90 L-90,0 Z" fill="none" stroke="#D3D3D3" stroke-width="2" />
    
    <!-- Top cube -->
    <path d="M0,-90 L45,-45 L0,0 L-45,-45 Z" fill="url(#topazLight)" />
    <path d="M0,-90 L45,-45 L90,0 L45,0 Z" fill="url(#topazGrad)" />
    <path d="M45,-45 L90,0 L45,45 L0,0 Z" fill="url(#topazDark)" />
    
    <!-- Bottom-left cube -->
    <path d="M-90,0 L-45,45 L0,0 L-45,-45 Z" fill="url(#turquoiseGrad)" />
    <path d="M-90,0 L-45,45 L0,90 L-45,90 Z" fill="url(#topazDark)" />
    <path d="M-45,45 L0,90 L0,45 L-45,0 Z" fill="url(#topazGrad)" />
    
    <!-- Bottom-right cube -->
    <path d="M0,0 L45,45 L0,90 L-45,45 Z" fill="url(#topazLight)" />
    <path d="M45,0 L90,0 L45,45 L0,45 Z" fill="url(#pinkGrad)" opacity="0.8" />
    <path d="M45,45 L90,0 L45,90 L0,90 Z" fill="url(#topazGrad)" />
    
    <!-- Internal highlights for 3D effect -->
    <path d="M-22,-67 L22,-67 M-67,-22 L-67,22 M67,-22 L67,22 M-22,67 L22,67" 
          stroke="#ffffff" stroke-width="1.5" opacity="0.3" />
    
    <!-- Additional subtle internal refractions -->
    <path d="M-45,-45 L45,45 M-45,45 L45,-45" 
          stroke="#B0E2FF" stroke-width="1" opacity="0.2" />
  </g>
</svg>
